#!OML:ASF F:\VICON\USERDATA\INSTALL\rory3\rory3.ASF
:FULLY-SPECIFIED
:DEGREES
1016
root -0.277854 16.8132 16.765 -161.297 -27.3836 -174.638
lowerback -12.977 2.43626 4.50684
upperback -6.32429 1.94385 2.55028
thorax 0.703837 0.605059 0.377678
lowerneck -11.747 1.84852 -1.53619
upperneck 41.7722 -3.25164 4.16793
head 17.4199 -2.48657 1.15678
rclavicle 7.00716e-015 2.38542e-015
rhumerus -75.3889 43.4519 -122.72
rradius 50.5743
rwrist -45.4522
rhand 21.2461 -3.48412
rfingers 7.12502
rthumb 45.6941 -26.7049
lclavicle 7.00716e-015 2.38542e-015
lhumerus -65.3171 -28.6349 111.375
lradius 42.6534
lwrist 15.4509
lhand 17.1262 16.7625
lfingers 7.12502
lthumb 41.8491 41.4029
rfemur -27.5142 -0.723873 37.9005
rtibia 27.811
rfoot -35.5065 -27.2172
rtoes 34.2455
lfemur -25.777 28.5522 -20.128
ltibia 61.453
lfoot 45.6211 26.1889
ltoes 13.7826
1017
root -0.284062 16.8123 16.76 -161.365 -27.2719 -174.602
lowerback -12.7603 2.43395 4.68465
upperback -6.37255 1.93899 2.50098
thorax 0.543905 0.595206 0.219733
lowerneck -11.6093 1.92004 -1.50762
upperneck 41.752 -3.1813 4.20793
head 17.3691 -2.45648 1.18115
rclavicle 2.25621e-014 -4.37326e-015
rhumerus -75.5337 43.4339 -123
rradius 50.4749
rwrist -45.1116
rhand 21.3295 -3.25458
rfingers 7.12502
rthumb 45.7716 -26.4436
lclavicle 2.25621e-014 -4.37326e-015
lhumerus -66.2059 -29.4008 112.263
lradius 43.456
lwrist 15.5839
lhand 16.6062 16.839
lfingers 7.12502
lthumb 41.3613 41.6394
rfemur -27.4726 -0.988172 37.9683
rtibia 27.9325
rfoot -35.2999 -27.0312
rtoes 34.1222
lfemur -26.1366 28.0131 -19.9495
ltibia 62.3642
lfoot 46.0513 24.0152
ltoes 10.7548
1018
root -0.282212 16.8106 16.7527 -161.384 -27.0908 -174.757
lowerback -12.4925 2.40054 4.5667
upperback -6.40676 1.93737 2.4368
thorax 0.362647 0.596299 0.210624
lowerneck -11.4993 1.97244 -1.63111
upperneck 41.7388 -3.13363 4.33761
head 17.3343 -2.44766 1.27017
rclavicle 1.88845e-015 -3.02153e-014
rhumerus -75.658 43.4916 -123.264
rradius 50.4191
rwrist -44.9336
rhand 21.1067 -3.06002
rfingers 7.12502
rthumb 45.5646 -26.3337
lclavicle 1.88845e-015 -3.02153e-014
lhumerus -66.9837 -30.0835 113.018
lradius 44.1788
lwrist 15.3496
lhand 16.1737 16.7254
lfingers 7.12502
lthumb 40.9552 41.656
rfemur -27.4013 -1.04556 37.8328
rtibia 28.093
rfoot -35.2793 -26.94
rtoes 34.0643
lfemur -26.5074 27.4938 -19.9197
ltibia 63.3124
lfoot 45.9138 22.2697
ltoes 8.02887
1019
root -0.280512 16.8034 16.7503 -161.49 -26.7803 -174.866
lowerback -12.1306 2.41425 4.48249
upperback -6.4387 2.00307 2.34836
thorax 0.136796 0.630555 0.163374
lowerneck -11.3898 2.02369 -1.7151
upperneck 41.8092 -3.15502 4.50769
head 17.353 -2.46383 1.35698
rclavicle 3.98563e-014 -3.69739e-014
rhumerus -75.7769 43.4733 -123.521
rradius 50.4011
rwrist -44.851
rhand 21.3151 -3.3626
rfingers 7.12502
rthumb 45.7582 -26.5572
lclavicle 3.98563e-014 -3.69739e-014
lhumerus -67.9132 -30.7766 113.765
lradius 45.0468
lwrist 15.0664
lhand 15.7523 16.9665
lfingers 7.12502
lthumb 40.5593 42.0213
rfemur -27.3181 -1.29716 37.7461
rtibia 28.3019
rfoot -35.0735 -26.6039
rtoes 33.8624
lfemur -26.8298 27.0934 -19.8434
ltibia 64.3344
lfoot 45.3849 21.7291
ltoes 7.64608
1020
root -0.279247 16.7969 16.751 -161.533 -26.4174 -174.866
lowerback -11.8913 2.49729 4.48174
upperback -6.46528 2.13559 2.29001
thorax -0.01404 0.69499 0.112043
lowerneck -11.1874 2.01151 -1.62021
upperneck 41.7127 -3.17489 4.44288
head 17.2432 -2.47032 1.30576
rclavicle -7.49667e-014 -2.34566e-014
rhumerus -75.925 43.5302 -123.801
rradius 50.3919
rwrist -44.8535
rhand 21.7338 -3.74255
rfingers 7.12502
rthumb 46.1467 -26.7757
lclavicle -7.49667e-014 -2.34566e-014
lhumerus -68.9762 -31.679 114.767
lradius 45.9862
lwrist 14.9361
lhand 15.1873 17.1524
lfingers 7.12502
lthumb 40.028 42.37
rfemur -27.4087 -1.3509 37.7069
rtibia 28.5636
rfoot -34.8959 -26.3738
rtoes 33.6655
lfemur -27.3613 26.7215 -19.775
ltibia 65.4331
lfoot 44.8134 21.6034
ltoes 7.66821
1021
root -0.280792 16.7904 16.7539 -161.625 -26.1967 -174.8
lowerback -11.7111 2.56237 4.64548
upperback -6.38231 2.2298 2.23672
thorax -0.0138444 0.744691 -0.0278034
lowerneck -11.1724 1.98358 -1.47915
upperneck 41.6011 -3.14701 4.26764
head 17.1677 -2.44993 1.20646
rclavicle -1.52816e-014 -1.23246e-014
rhumerus -75.631 43.4716 -123.651
rradius 50.2774
rwrist -44.4161
rhand 21.6858 -3.57443
rfingers 7.12502
rthumb 46.1022 -26.6263
lclavicle -1.52816e-014 -1.23246e-014
lhumerus -69.8608 -32.765 115.792
lradius 46.8889
lwrist 14.8668
lhand 14.4355 17.1732
lfingers 7.12502
lthumb 39.32 42.6008
rfemur -27.4608 -1.39504 37.7447
rtibia 28.7807
rfoot -34.7012 -26.3941
rtoes 33.2484
lfemur -27.921 26.1251 -19.6094
ltibia 66.5971
lfoot 44.0885 21.8721
ltoes 8.30999
1022
root -0.281783 16.7861 16.7524 -161.719 -26.0286 -174.89
lowerback -11.5244 2.57201 4.6689
upperback -6.27776 2.2719 2.14838
thorax 0.00041451 0.774916 -0.132154
lowerneck -11.1044 2.02062 -1.33003
upperneck 41.431 -3.02931 4.16109
head 17.0429 -2.38 1.15356
rclavicle -4.47266e-014 -2.78299e-014
rhumerus -75.3886 43.3748 -123.603
rradius 50.1698
rwrist -43.9763
rhand 21.3552 -3.12709
rfingers 7.12502
rthumb 45.7954 -26.3064
lclavicle -4.47266e-014 -2.78299e-014
lhumerus -70.6427 -33.7844 116.699
lradius 47.6564
lwrist 14.6903
lhand 13.8324 17.284
lfingers 7.12502
lthumb 38.7515 42.8748
rfemur -27.3984 -1.36428 37.6317
rtibia 28.9618
rfoot -34.676 -26.5054
rtoes 33.0916
lfemur -28.3926 25.4685 -19.5121
ltibia 67.7387
lfoot 44.196 19.4121
ltoes 4.00495
1023
root -0.281582 16.7774 16.7564 -161.859 -25.594 -174.628
lowerback -11.3039 2.69015 4.92892
upperback -6.27347 2.41807 2.16273
thorax -0.100121 0.839972 -0.252121
lowerneck -10.8774 2.11094 -1.129
upperneck 41.2852 -2.85564 4.00696
head 16.8883 -2.29715 1.0778
rclavicle 2.81529e-014 5.12864e-014
rhumerus -75.5982 43.4291 -123.968
rradius 50.2057
rwrist -43.8392
rhand 21.0398 -2.96751
rfingers 7.12502
rthumb 45.5025 -26.2664
lclavicle 2.81529e-014 5.12864e-014
lhumerus -71.5099 -34.6256 117.558
lradius 48.4914
lwrist 14.5006
lhand 13.5082 17.3154
lfingers 7.12502
lthumb 38.4457 42.992
rfemur -27.412 -1.25694 37.8054
rtibia 29.1228
rfoot -34.5041 -26.245
rtoes 32.8687
lfemur -29.0879 25.2749 -19.2226
ltibia 68.9422
lfoot 44.166 15.2296
ltoes -3.62855
1024
root -0.280976 16.7674 16.7549 -162.115 -25.3564 -174.412
lowerback -11.0533 2.75151 5.14839
upperback -6.20488 2.50323 2.19417
thorax -0.153771 0.881787 -0.339454
lowerneck -10.6556 2.15703 -1.07803
upperneck 41.2036 -2.79326 3.98725
head 16.7822 -2.27171 1.07005
rclavicle -7.20346e-014 2.34566e-014
rhumerus -75.7239 43.4675 -124.182
rradius 50.2707
rwrist -43.8818
rhand 20.5529 -2.81415
rfingers 7.12502
rthumb 45.0498 -26.2941
lclavicle -7.20346e-014 2.34566e-014
lhumerus -72.4106 -35.5858 118.544
lradius 49.2688
lwrist 14.3687
lhand 12.9739 17.3695
lfingers 7.12502
lthumb 37.9413 43.1847
rfemur -27.2489 -1.18744 37.9697
rtibia 29.2747
rfoot -34.6026 -26.0517
rtoes 32.5362
lfemur -29.6072 24.9433 -18.8096
ltibia 70.1632
lfoot 42.6996 14.2738
ltoes -4.99806
1025
root -0.281756 16.7587 16.7562 -162.331 -25.0994 -174.411
lowerback -10.7092 2.82466 5.20908
upperback -6.15395 2.63597 2.13347
thorax -0.276398 0.951454 -0.432944
lowerneck -10.4335 2.15451 -0.972948
upperneck 41.1675 -2.84577 3.97651
head 16.7077 -2.288 1.03652
rclavicle -6.1002e-014 -2.22639e-014
rhumerus -75.6482 43.2665 -124.14
rradius 50.2561
rwrist -43.6853
rhand 20.3551 -2.73412
rfingers 7.12502
rthumb 44.8657 -26.2864
lclavicle -6.1002e-014 -2.22639e-014
lhumerus -73.6952 -36.7802 119.938
lradius 49.8765
lwrist 14.043
lhand 12.0937 16.8586
lfingers 7.12502
lthumb 37.1093 42.8948
rfemur -27.0541 -1.2322 37.9474
rtibia 29.4224
rfoot -34.5121 -25.974
rtoes 31.8869
lfemur -30.0852 24.5895 -18.6051
ltibia 71.4181
lfoot 40.171 14.9727
ltoes -2.94178
1026
root -0.282048 16.7517 16.7628 -162.521 -24.8128 -174.405
lowerback -10.306 2.82656 5.24214
upperback -6.04994 2.6813 2.16641
thorax -0.385241 0.981955 -0.425711
lowerneck -10.612 2.19519 -1.13918
upperneck 41.1918 -2.729 4.00038
head 16.7615 -2.25492 1.09762
rclavicle -4.54471e-014 -4.13472e-014
rhumerus -75.7161 43.472 -124.191
rradius 50.3948
rwrist -43.6529
rhand 20.2976 -3.02847
rfingers 7.12502
rthumb 44.8122 -26.6016
lclavicle -4.54471e-014 -4.13472e-014
lhumerus -74.6941 -37.7467 121.046
lradius 50.6594
lwrist 13.5973
lhand 11.545 16.2624
lfingers 7.12502
lthumb 36.5902 42.4317
rfemur -26.9402 -1.28469 37.9253
rtibia 29.6126
rfoot -34.3453 -25.8418
rtoes 31.5143
lfemur -30.6954 24.2752 -18.4436
ltibia 72.7312
lfoot 37.3507 15.0705
ltoes -2.1064
1027
root -0.279105 16.7336 16.771 -162.797 -24.6204 -174.239
lowerback -9.93929 2.79863 5.38953
upperback -5.88911 2.67223 2.26922
thorax -0.416499 0.986025 -0.413202
lowerneck -10.6543 2.22329 -1.16962
upperneck 41.0299 -2.5614 3.88092
head 16.671 -2.18974 1.08046
rclavicle 7.59606e-014 1.51076e-014
rhumerus -75.5911 43.7177 -124.063
rradius 50.4792
rwrist -43.5467
rhand 20.1543 -3.06173
rfingers 7.12502
rthumb 44.6788 -26.6867
lclavicle 7.59606e-014 1.51076e-014
lhumerus -75.1837 -38.4892 121.449
lradius 51.8904
lwrist 13.6653
lhand 11.8792 16.4868
lfingers 7.12502
lthumb 36.9064 42.5754
rfemur -26.8391 -1.30429 38.073
rtibia 29.8287
rfoot -34.2604 -25.723
rtoes 31.4215
lfemur -31.3322 23.8521 -18.0921
ltibia 74.0881
lfoot 34.0498 15.5065
ltoes 0.238723
1028
root -0.275647 16.7194 16.776 -163.029 -24.4818 -174.076
lowerback -9.56959 2.85523 5.60013
upperback -5.86785 2.76965 2.23724
thorax -0.581386 1.03049 -0.567202
lowerneck -10.5013 2.24035 -0.964292
upperneck 40.9658 -2.56356 3.81021
head 16.5953 -2.1705 1.01128
rclavicle 2.46493e-014 -1.15295e-014
rhumerus -75.4224 43.5178 -123.923
rradius 50.5214
rwrist -43.2982
rhand 20.2467 -3.07941
rfingers 7.12502
rthumb 44.7648 -26.671
lclavicle 2.46493e-014 -1.15295e-014
lhumerus -76.0951 -39.4369 122.06
lradius 53.1564
lwrist 14.0517
lhand 12.1689 16.6253
lfingers 7.12502
lthumb 37.1805 42.6429
rfemur -26.7836 -1.20837 38.2048
rtibia 30.0494
rfoot -34.2905 -25.7925
rtoes 31.3313
lfemur -32.0175 23.3755 -17.7383
ltibia 75.3288
lfoot 30.5024 15.3212
ltoes 2.26871
1029
root -0.272523 16.7138 16.7788 -163.253 -24.3264 -174.024
lowerback -9.07157 2.93203 5.79265
upperback -5.93589 2.91285 2.08018
thorax -0.901385 1.09117 -0.843752
lowerneck -10.335 2.29061 -0.774202
upperneck 41.0947 -2.6718 3.9454
head 16.6331 -2.18907 1.01571
rclavicle -9.54166e-015 1.59028e-015
rhumerus -75.2748 43.0633 -123.955
rradius 50.481
rwrist -43.1859
rhand 20.2631 -3.27681
rfingers 7.12502
rthumb 44.7801 -26.8625
lclavicle -9.54166e-015 1.59028e-015
lhumerus -77.5879 -40.6539 123.249
lradius 54.1215
lwrist 14.5261
lhand 11.9858 16.3744
lfingers 7.12502
lthumb 37.0073 42.437
rfemur -26.7028 -0.978554 38.1941
rtibia 30.2679
rfoot -34.3861 -26.025
rtoes 31.0857
lfemur -32.666 22.8962 -17.4833
ltibia 76.4189
lfoot 26.9465 14.3581
ltoes 2.69162
